<?xml version="1.0" encoding="UTF-8"?>
<svg version="1.1" xmlns="http://www.w3.org/2000/svg" width="100" height="100">
<path d="M0 0 C1.24265625 0.23396484 2.4853125 0.46792969 3.765625 0.70898438 C6.80281907 1.28137864 9.83922606 1.85762948 12.875 2.4375 C12.94960523 8.11170636 13.00381608 13.78562208 13.03979492 19.46020508 C13.05480652 21.38733906 13.07522216 23.31443932 13.10131836 25.24145508 C13.13803943 28.02433639 13.15480292 30.80676288 13.16796875 33.58984375 C13.18345261 34.44021713 13.19893646 35.29059052 13.21488953 36.16673279 C13.21809876 47.78278901 8.73334269 55.29310542 0.875 63.53515625 C-4.89070629 69.03589442 -11.62558929 73.66168299 -19.125 76.4375 C-29.92847946 75.97866497 -40.03956762 66.95158843 -47.125 59.4375 C-53.71263734 51.29179075 -55.44350112 44.05662365 -55.3203125 33.78515625 C-55.3174826 32.88502304 -55.31465271 31.98488983 -55.31173706 31.05747986 C-55.30061278 28.2048468 -55.27552283 25.35253689 -55.25 22.5 C-55.23996017 20.55664518 -55.23083608 18.61328541 -55.22265625 16.66992188 C-55.20069888 11.92565824 -55.16622301 7.18163376 -55.125 2.4375 C-54.14273438 2.27145264 -54.14273438 2.27145264 -53.140625 2.10205078 C-50.13486343 1.59206899 -47.12993668 1.07731904 -44.125 0.5625 C-43.09503906 0.38847656 -42.06507812 0.21445313 -41.00390625 0.03515625 C-36.59614535 -0.72286633 -32.28710408 -1.47470036 -28 -2.7578125 C-18.79254449 -4.66984459 -9.08632068 -1.73651846 0 0 Z " fill="#C2C5E5" transform="translate(71.125,13.5625)"/>
<path d="M0 0 C5.02237643 1.33466175 10.04637063 2.5246303 15.125 3.625 C15.37084961 5.92675781 15.37084961 5.92675781 15.125 8.625 C13.50219727 10.29980469 13.50219727 10.29980469 11.19140625 11.796875 C10.32596191 12.37107178 9.46051758 12.94526855 8.56884766 13.53686523 C7.14258057 14.44674194 7.14258057 14.44674194 5.6875 15.375 C3.68581182 16.69342442 1.68452631 18.01246033 -0.31640625 19.33203125 C-1.37746582 20.02377441 -2.43852539 20.71551758 -3.53173828 21.42822266 C-8.75923497 24.84795952 -13.90664094 28.3864809 -19.06375122 31.91101074 C-21.76604155 33.75632463 -24.47303153 35.5946895 -27.1796875 37.43359375 C-28.5406958 38.35869751 -28.5406958 38.35869751 -29.92919922 39.30249023 C-30.57131348 39.73891846 -31.21342773 40.17534668 -31.875 40.625 C-34.58561654 37.91438346 -34.85691433 36.14722851 -34.98852539 32.34692383 C-34.98836756 31.00861586 -34.98274745 29.67030118 -34.97265625 28.33203125 C-34.9712413 27.62600266 -34.96982635 26.91997406 -34.96836853 26.19255066 C-34.96277764 23.94082374 -34.95022688 21.68919679 -34.9375 19.4375 C-34.93248382 17.90950665 -34.92792112 16.38151173 -34.92382812 14.85351562 C-34.9128112 11.11063865 -34.89555287 7.36783627 -34.875 3.625 C-31.35710157 2.77894025 -27.83527995 1.95047725 -24.3125 1.125 C-22.8265332 0.76728516 -22.8265332 0.76728516 -21.31054688 0.40234375 C-13.79862338 -1.3446152 -7.54693776 -2.06569299 0 0 Z " fill="#F34538" transform="translate(59.875,20.375)"/>
<path d="M0 0 C11.36479222 1.82220297 22.67947585 3.92386543 34 6 C34.07460523 11.67420636 34.12881608 17.34812208 34.16479492 23.02270508 C34.17980652 24.94983906 34.20022216 26.87693932 34.22631836 28.80395508 C34.26303943 31.58683639 34.27980292 34.36926288 34.29296875 37.15234375 C34.30845261 38.00271713 34.32393646 38.85309052 34.33988953 39.72923279 C34.34309876 51.34528901 29.85834269 58.85560542 22 67.09765625 C16.89390064 71.9691003 7.46348859 80 0 80 C0 76.7 0 73.4 0 70 C0.71285156 69.63648437 1.42570312 69.27296875 2.16015625 68.8984375 C12.18093888 63.63853814 20.27818822 58.16543535 24 47 C24.1529647 44.48945095 24.25695178 42.00111475 24.31640625 39.48828125 C24.33718735 38.76005661 24.35796844 38.03183197 24.37937927 37.28153992 C24.44468746 34.95862125 24.50367237 32.63559094 24.5625 30.3125 C24.60570305 28.73631665 24.64931792 27.16014452 24.69335938 25.58398438 C24.8003496 21.72277025 24.90166961 17.86144397 25 14 C24.06188477 13.87230225 23.12376953 13.74460449 22.15722656 13.61303711 C20.91424805 13.4403833 19.67126953 13.26772949 18.390625 13.08984375 C17.16375977 12.920896 15.93689453 12.75194824 14.67285156 12.57788086 C9.72299477 11.79907795 4.64368216 10.93486757 0 9 C-2 6 -2 6 -2 3 C-1.34 3 -0.68 3 0 3 C0 2.01 0 1.02 0 0 Z " fill="#9EA6D8" transform="translate(50,10)"/>
<path d="M0 0 C0.11760715 3.16634636 0.18771024 6.33212074 0.25 9.5 C0.28351563 10.386875 0.31703125 11.27375 0.3515625 12.1875 C0.47144009 20.33917637 -1.96764828 26.32052069 -7.375 32.48828125 C-10.90371877 35.77100761 -14.9831498 38.35841038 -19 41 C-19.99 41.66 -20.98 42.32 -22 43 C-29.02735926 43.1434155 -33.69782614 39.28969845 -39 35 C-40.35386 33.68751433 -41.69396198 32.36008097 -43 31 C-41.67134086 27.89801612 -40.47660837 26.32679353 -37.640625 24.51171875 C-36.94702881 24.05958008 -36.25343262 23.60744141 -35.53881836 23.14160156 C-34.7835083 22.66174805 -34.02819824 22.18189453 -33.25 21.6875 C-31.63053791 20.63561031 -30.01209714 19.58214703 -28.39453125 18.52734375 C-27.52908691 17.96515137 -26.66364258 17.40295898 -25.77197266 16.82373047 C-19.78478555 12.88465282 -13.90034416 8.79144787 -7.99902344 4.7253418 C-6.65179199 3.80168823 -6.65179199 3.80168823 -5.27734375 2.859375 C-4.47546631 2.30733398 -3.67358887 1.75529297 -2.84741211 1.18652344 C-1 0 -1 0 0 0 Z " fill="#E43B38" transform="translate(75,37)"/>
<path d="M0 0 C5.14299849 0.73471407 10.2128715 1.54529661 15.3125 2.5 C16.02728516 2.63019531 16.74207031 2.76039062 17.47851562 2.89453125 C22.76045583 3.88022791 22.76045583 3.88022791 25 5 C25.29418945 7.26660156 25.29418945 7.26660156 25 10 C23.02807617 11.92871094 23.02807617 11.92871094 20.29296875 13.734375 C19.31392578 14.39050781 18.33488281 15.04664063 17.32617188 15.72265625 C16.29041016 16.39167969 15.25464844 17.06070313 14.1875 17.75 C13.16333984 18.43449219 12.13917969 19.11898437 11.08398438 19.82421875 C3.54170993 24.81943002 3.54170993 24.81943002 0 26 C0 17.42 0 8.84 0 0 Z " fill="#E43B37" transform="translate(50,19)"/>
<path d="M0 0 C0.6446094 3.28164785 0.93880234 4.86708247 0 8 C-3.26024441 11.26652619 -7.09875292 13.56412282 -11 16 C-12.83614111 17.22496842 -14.66944366 18.45420145 -16.5 19.6875 C-17.47839844 20.33074219 -18.45679687 20.97398438 -19.46484375 21.63671875 C-22.2995513 23.51392508 -25.09111961 25.44838098 -27.87890625 27.39453125 C-29.16087891 28.28555542 -29.16087891 28.28555542 -30.46875 29.19458008 C-32.17965682 30.38548331 -33.88679022 31.5818285 -35.58984375 32.78393555 C-36.37617187 33.32961182 -37.1625 33.87528809 -37.97265625 34.4375 C-38.67656494 34.93121094 -39.38047363 35.42492187 -40.10571289 35.93359375 C-42 37 -42 37 -45 37 C-47 34 -47 34 -46.91308594 32.02490234 C-45.64108305 29.20404889 -43.98019249 28.27577711 -41.390625 26.6015625 C-40.41746338 25.96347656 -39.44430176 25.32539062 -38.44165039 24.66796875 C-37.38840576 23.99378906 -36.33516113 23.31960937 -35.25 22.625 C-33.066202 21.20083398 -30.88261255 19.77634813 -28.69921875 18.3515625 C-27.57607958 17.62391466 -26.45286985 16.89637573 -25.32958984 16.16894531 C-19.28889283 12.23394368 -13.3192252 8.19236342 -7.33886719 4.16650391 C-6.10571777 3.34158447 -6.10571777 3.34158447 -4.84765625 2.5 C-4.12586182 2.0153125 -3.40406738 1.530625 -2.66040039 1.03125 C-1 0 -1 0 0 0 Z " fill="#FEC7CC" transform="translate(75,29)"/>
<path d="M0 0 C0 8.58 0 17.16 0 26 C-4.88052326 24.37315891 -6.95834373 23.58877865 -10.6875 20.5625 C-11.80705078 19.66724609 -11.80705078 19.66724609 -12.94921875 18.75390625 C-14.72346454 17.23650366 -16.38134474 15.68031832 -18 14 C-16.66029751 10.86138751 -15.41187342 9.27870567 -12.55859375 7.421875 C-11.89279297 6.98359375 -11.22699219 6.5453125 -10.54101562 6.09375 C-9.84685547 5.6503125 -9.15269531 5.206875 -8.4375 4.75 C-7.73947266 4.29109375 -7.04144531 3.8321875 -6.32226562 3.359375 C-1.16822452 0 -1.16822452 0 0 0 Z " fill="#F34539" transform="translate(50,54)"/>
<path d="M0 0 C0.95928692 4.8836425 0.95928692 4.8836425 0 8 C-3.31612057 11.21773654 -7.08899253 13.56504769 -11 16 C-12.1694933 16.82936178 -13.33693436 17.66164812 -14.5 18.5 C-17 20 -17 20 -20 20 C-22 17 -22 17 -21.90234375 15.01464844 C-20.66662031 12.2556685 -19.10463304 11.37676626 -16.5625 9.765625 C-15.66789062 9.19199219 -14.77328125 8.61835937 -13.8515625 8.02734375 C-12.91054688 7.44082031 -11.96953125 6.85429688 -11 6.25 C-10.05898438 5.64800781 -9.11796875 5.04601563 -8.1484375 4.42578125 C-1.18360261 0 -1.18360261 0 0 0 Z " fill="#FEF8F7" transform="translate(50,46)"/>
<path d="M0 0 C0.99 0 1.98 0 3 0 C5 3 5 3 4.8125 5.0625 C4 7 4 7 1 9 C-0.5625 7.75 -0.5625 7.75 -2 6 C-1.7181953 3.67511119 -1.04553582 2.09107165 0 0 Z " fill="#FDC5CA" transform="translate(61,56)"/>
<path d="M0 0 C0.99 0 1.98 0 3 0 C5 3 5 3 4.8125 5.0625 C4 7 4 7 1 9 C-0.5625 7.75 -0.5625 7.75 -2 6 C-1.7181953 3.67511119 -1.04553582 2.09107165 0 0 Z " fill="#FEF5F5" transform="translate(36,31)"/>
</svg>
